<?xml version="1.0" encoding="iso-8859-1"?>
<!-- Uploaded to: SVG Repo, www.svgrepo.com, Generator: SVG Repo Mixer Tools -->
<svg version="1.1" id="Layer_1" xmlns="http://www.w3.org/2000/svg" xmlns:xlink="http://www.w3.org/1999/xlink" 
	 viewBox="0 0 483.92 483.92" xml:space="preserve">
<path style="fill:#FFFFFF;" d="M457.96,475.92h-432c-8.84,0-16-7.16-16-16v-24h464v24C473.96,468.76,466.8,475.92,457.96,475.92z"/>
<path d="M457.96,483.92h-432c-13.232,0-24-10.768-24-24v-24c0-4.424,3.584-8,8-8h464c4.416,0,8,3.576,8,8v24
	C481.96,473.152,471.192,483.92,457.96,483.92z M17.96,443.92v16c0,4.416,3.592,8,8,8h432c4.408,0,8-3.584,8-8v-16H17.96z"/>
<path style="fill:#F5B945;" d="M369.96,99.92h-128c-8.84,0-16-7.16-16-16v-8c0-8.84,7.16-16,16-16h128c8.84,0,16,7.16,16,16v8
	C385.96,92.76,378.8,99.92,369.96,99.92z"/>
<path d="M225.96,227.92c-4.416,0-8-3.576-8-8v-88c0-4.424,3.584-8,8-8c4.416,0,8,3.576,8,8v88
	C233.96,224.344,230.376,227.92,225.96,227.92z"/>
<path d="M225.96,275.92c-4.416,0-8-3.576-8-8v-16c0-4.424,3.584-8,8-8c4.416,0,8,3.576,8,8v16
	C233.96,272.344,230.376,275.92,225.96,275.92z"/>
<path d="M225.96,371.92c-4.416,0-8-3.576-8-8v-40c0-4.424,3.584-8,8-8c4.416,0,8,3.576,8,8v40
	C233.96,368.344,230.376,371.92,225.96,371.92z"/>
<path d="M273.96,339.92c-4.416,0-8-3.576-8-8v-40c0-4.424,3.584-8,8-8s8,3.576,8,8v40C281.96,336.344,278.376,339.92,273.96,339.92z
	"/>
<path d="M273.96,387.92c-4.416,0-8-3.576-8-8v-16c0-4.424,3.584-8,8-8s8,3.576,8,8v16C281.96,384.344,278.376,387.92,273.96,387.92z
	"/>
<path d="M273.96,179.92c-4.416,0-8-3.576-8-8v-40c0-4.424,3.584-8,8-8s8,3.576,8,8v40C281.96,176.344,278.376,179.92,273.96,179.92z
	"/>
<path d="M273.96,227.92c-4.416,0-8-3.576-8-8v-16c0-4.424,3.584-8,8-8s8,3.576,8,8v16C281.96,224.344,278.376,227.92,273.96,227.92z
	"/>
<path d="M321.96,211.92c-4.416,0-8-3.576-8-8v-40c0-4.424,3.584-8,8-8s8,3.576,8,8v40C329.96,208.344,326.376,211.92,321.96,211.92z
	"/>
<path d="M321.96,259.92c-4.416,0-8-3.576-8-8v-16c0-4.424,3.584-8,8-8s8,3.576,8,8v16C329.96,256.344,326.376,259.92,321.96,259.92z
	"/>
<path d="M321.96,323.92c-4.416,0-8-3.576-8-8v-16c0-4.424,3.584-8,8-8s8,3.576,8,8v16C329.96,320.344,326.376,323.92,321.96,323.92z
	"/>
<path d="M321.96,403.92c-4.416,0-8-3.576-8-8v-40c0-4.424,3.584-8,8-8s8,3.576,8,8v40C329.96,400.344,326.376,403.92,321.96,403.92z
	"/>
<path d="M369.96,339.92c-4.416,0-8-3.576-8-8v-40c0-4.424,3.584-8,8-8s8,3.576,8,8v40C377.96,336.344,374.376,339.92,369.96,339.92z
	"/>
<path d="M369.96,387.92c-4.416,0-8-3.576-8-8v-16c0-4.424,3.584-8,8-8s8,3.576,8,8v16C377.96,384.344,374.376,387.92,369.96,387.92z
	"/>
<path d="M369.96,179.92c-4.416,0-8-3.576-8-8v-40c0-4.424,3.584-8,8-8s8,3.576,8,8v40C377.96,176.344,374.376,179.92,369.96,179.92z
	"/>
<path d="M369.96,227.92c-4.416,0-8-3.576-8-8v-16c0-4.424,3.584-8,8-8s8,3.576,8,8v16C377.96,224.344,374.376,227.92,369.96,227.92z
	"/>
<path d="M473.96,307.92c-4.416,0-8-3.576-8-8v-256c0-13.232-10.768-24-24-24h-104c-13.232,0-24,10.768-24,24v16c0,4.424-3.584,8-8,8
	s-8-3.576-8-8v-16c0-22.056,17.944-40,40-40h104c22.056,0,40,17.944,40,40v256C481.96,304.344,478.376,307.92,473.96,307.92z"/>
<circle style="fill:#F5B945;" cx="430.824" cy="300.8" r="18.864"/>
<path d="M369.96,51.92h-128c-13.232,0-24,10.768-24,24v8c0,13.232,10.768,24,24,24h128c13.232,0,24-10.768,24-24v-8
	C393.96,62.688,383.192,51.92,369.96,51.92z M377.96,83.92c0,4.416-3.592,8-8,8h-128c-4.408,0-8-3.584-8-8v-8c0-4.416,3.592-8,8-8
	h128c4.408,0,8,3.584,8,8V83.92z"/>
<path d="M473.96,291.92h-17.896c-3.688-10.448-13.552-18-25.24-18c-14.816,0-26.864,12.056-26.864,26.864
	c0,14.808,12.048,26.864,26.864,26.864c12.328,0,22.632-8.392,25.776-19.736h17.36V291.92z M430.824,311.656
	c-5.992,0-10.864-4.872-10.864-10.864s4.872-10.864,10.864-10.864s10.864,4.872,10.864,10.864S436.816,311.656,430.824,311.656z"/>
<g>
	<rect x="25.96" y="171.92" style="fill:#3AADD9;" width="32" height="72"/>
	<path style="fill:#3AADD9;" d="M153.96,243.92h-48v-48c0-8.84,7.16-16,16-16h16c8.84,0,16,7.16,16,16V243.92z"/>
</g>
<path d="M177.96,235.92h-16v-40c0-13.232-10.768-24-24-24v-16h8c4.416,0,8-3.576,8-8s-3.584-8-8-8h-16c-4.416,0-8,3.576-8,8v24
	c-13.232,0-24,10.768-24,24v40h-32v-64c0-4.424-3.584-8-8-8h-8v-16c0-4.424-3.584-8-8-8s-8,3.576-8,8v16h-8c-4.416,0-8,3.576-8,8v64
	h-8c-4.416,0-8,3.576-8,8c0,4.424,3.584,8,8,8h16h32h48h48h24c4.416,0,8-3.576,8-8S182.376,235.92,177.96,235.92z M33.96,235.92v-56
	h16v56H33.96z M113.96,235.92v-40c0-4.416,3.592-8,8-8h16c4.408,0,8,3.584,8,8v40H113.96z"/>
<path d="M62.848,394.144c-16.664,0-30.224-13.56-30.224-30.224s13.56-30.224,30.224-30.224s30.232,13.56,30.232,30.224
	S79.52,394.144,62.848,394.144z M62.848,349.696c-7.84,0-14.224,6.384-14.224,14.224c0,7.84,6.384,14.224,14.224,14.224
	S77.08,371.76,77.08,363.92C77.08,356.08,70.696,349.696,62.848,349.696z"/>
<path d="M142.336,330.872c-14.024,0-25.432-11.416-25.432-25.44c0-14.024,11.408-25.432,25.432-25.432
	c14.024,0,25.432,11.408,25.432,25.432C167.768,319.456,156.36,330.872,142.336,330.872z M142.336,296.008
	c-5.2,0-9.432,4.224-9.432,9.432s4.232,9.44,9.432,9.44s9.432-4.232,9.432-9.44S147.536,296.008,142.336,296.008z"/>
<path d="M38.336,50.872c-14.024,0-25.432-11.416-25.432-25.44S24.312,0,38.336,0s25.432,11.408,25.432,25.432
	S52.36,50.872,38.336,50.872z M38.336,16.008c-5.2,0-9.432,4.224-9.432,9.432s4.232,9.44,9.432,9.44s9.432-4.232,9.432-9.44
	S43.536,16.008,38.336,16.008z"/>
<path d="M142.336,106.872c-14.024,0-25.432-11.416-25.432-25.44S128.312,56,142.336,56c14.024,0,25.432,11.408,25.432,25.432
	S156.36,106.872,142.336,106.872z M142.336,72.008c-5.2,0-9.432,4.224-9.432,9.432s4.232,9.44,9.432,9.44s9.432-4.232,9.432-9.44
	S147.536,72.008,142.336,72.008z"/>
</svg>